<?xml version="1.0" standalone="no"?>
<!DOCTYPE svg PUBLIC "-//W3C//DTD SVG 20010904//EN"
 "http://www.w3.org/TR/2001/REC-SVG-20010904/DTD/svg10.dtd">
<svg version="1.0" xmlns="http://www.w3.org/2000/svg"
 width="850.000000pt" height="850.000000pt" viewBox="0 0 850.000000 850.000000"
 preserveAspectRatio="xMidYMid meet">
<metadata>
Created by potrace 1.14, written by Peter Selinger 2001-2017
</metadata>
<g transform="translate(0.000000,850.000000) scale(0.100000,-0.100000)"
fill="#000000" stroke="none">
<path d="M4602 7211 c-6 -4 -55 -6 -109 -6 -54 1 -102 -1 -108 -4 -5 -3 -30
-6 -55 -8 -25 -1 -63 -5 -85 -8 -22 -3 -62 -7 -90 -9 -54 -4 -95 -11 -177 -32
-13 -3 -30 -7 -38 -9 -8 -2 -15 -4 -15 -5 0 -2 -34 -10 -60 -14 -11 -2 -20 -4
-20 -5 0 -3 -36 -11 -65 -14 -14 -2 -31 -6 -38 -10 -6 -5 -12 -5 -12 -1 0 3
-7 1 -15 -6 -8 -7 -15 -9 -15 -5 0 4 -7 2 -15 -5 -8 -7 -15 -10 -15 -7 0 3
-17 -1 -37 -10 -21 -8 -49 -20 -63 -26 -14 -6 -28 -11 -32 -12 -5 -2 -11 -4
-15 -5 -5 -1 -12 -3 -18 -5 -5 -1 -13 -3 -17 -5 -5 -1 -16 -3 -25 -4 -10 -1
-25 -6 -33 -11 -8 -5 -24 -15 -35 -21 -11 -6 -29 -15 -40 -21 -19 -11 -49 -22
-60 -23 -9 0 -110 -53 -137 -72 -16 -11 -28 -17 -28 -13 0 6 -61 -25 -70 -36
-7 -8 -94 -62 -100 -63 -13 0 -108 -59 -214 -132 -78 -53 -456 -453 -449 -474
1 -3 -14 -26 -33 -49 -19 -24 -34 -49 -34 -56 0 -6 -9 -21 -21 -34 -12 -12
-22 -28 -23 -34 -1 -7 -26 -50 -56 -96 -30 -46 -55 -89 -56 -95 -1 -6 -17 -33
-35 -60 -33 -47 -73 -111 -70 -111 5 0 -41 -95 -48 -99 -5 -3 -32 -51 -60
-107 -28 -56 -66 -121 -83 -145 -17 -24 -29 -47 -25 -50 3 -3 -6 -24 -20 -47
-14 -22 -26 -45 -27 -51 -1 -6 -14 -30 -29 -53 -15 -24 -27 -47 -27 -51 0 -8
-8 -24 -70 -139 -13 -23 -27 -40 -30 -38 -10 6 -29 -17 -33 -41 -2 -10 -21
-46 -42 -79 -43 -65 -76 -123 -73 -127 3 -5 -36 -63 -75 -110 -21 -27 -36 -48
-33 -48 3 0 -30 -36 -72 -79 -83 -85 -193 -183 -199 -178 -2 2 -19 -11 -39
-30 -28 -26 -131 -85 -154 -88 -3 0 -15 -6 -27 -13 -13 -7 -23 -10 -23 -6 0 4
-9 -1 -20 -11 -11 -10 -20 -15 -20 -10 0 4 -11 0 -25 -9 -14 -9 -25 -13 -25
-9 0 3 -11 -4 -25 -17 -13 -12 -24 -25 -23 -29 1 -3 -3 -17 -9 -31 -27 -60
-34 -89 -35 -140 -1 -44 14 -158 22 -167 2 -2 4 -7 5 -13 1 -5 3 -11 5 -12 2
-4 11 -40 14 -63 4 -24 11 -44 44 -115 14 -30 26 -58 26 -62 1 -3 5 -10 9 -14
6 -7 45 -83 52 -104 10 -27 22 -51 44 -80 14 -19 34 -51 44 -71 11 -20 35 -57
55 -82 21 -24 57 -72 81 -106 24 -33 47 -61 52 -61 4 0 18 -18 31 -39 36 -60
210 -236 342 -346 26 -22 59 -50 72 -62 13 -12 45 -33 72 -48 28 -15 59 -40
70 -55 12 -16 42 -38 67 -51 25 -12 45 -26 45 -31 0 -8 61 -43 72 -40 3 1 17
-10 30 -23 13 -14 27 -25 32 -25 5 0 17 -7 27 -16 9 -8 23 -17 31 -18 7 -1 29
-12 48 -24 19 -12 40 -22 45 -22 6 0 21 -9 35 -20 14 -11 32 -20 40 -20 15 0
33 -9 103 -48 20 -12 37 -19 37 -16 0 4 11 -1 25 -10 14 -9 25 -14 25 -12 0 3
20 -3 45 -14 25 -11 45 -17 45 -13 0 3 9 -2 20 -12 11 -10 20 -15 20 -11 0 3
13 0 30 -9 16 -9 30 -13 30 -9 0 4 7 1 15 -6 8 -6 19 -9 25 -5 5 3 10 2 10 -4
0 -8 26 -22 50 -26 3 0 30 -9 60 -20 30 -10 56 -18 57 -17 2 1 18 -5 38 -14
19 -8 37 -14 40 -14 3 0 7 -1 10 -1 3 -1 19 -3 35 -4 17 -1 31 -3 33 -5 2 -2
22 -7 59 -15 15 -3 39 -10 53 -15 14 -5 25 -7 25 -4 0 2 9 0 19 -6 11 -5 35
-12 53 -14 18 -3 33 -5 33 -6 0 -3 42 -10 85 -14 25 -3 56 -7 70 -10 34 -8 85
-16 145 -22 28 -2 66 -7 85 -9 19 -3 53 -8 75 -11 56 -8 80 -12 80 -14 0 -2
32 -4 70 -6 39 -1 93 -6 120 -9 28 -3 75 -7 105 -8 30 -2 60 -5 65 -8 12 -6
554 -2 640 5 33 3 83 8 110 11 28 4 79 8 115 9 36 2 65 5 65 6 0 1 14 3 30 5
17 2 41 6 55 9 35 9 89 18 125 21 17 2 32 4 35 5 3 1 8 2 11 2 4 -1 22 3 40 9
19 6 51 12 72 14 21 2 43 8 50 13 7 5 21 8 31 6 11 -1 25 0 30 4 6 4 14 7 19
8 4 1 9 3 12 4 3 1 8 3 13 4 4 1 32 10 62 21 56 19 60 20 96 29 20 4 86 31
144 59 14 7 29 18 33 25 5 7 12 10 17 7 9 -5 45 12 118 55 18 11 42 22 52 23
10 2 24 8 32 14 7 6 45 27 83 48 39 21 77 44 86 51 8 8 19 14 23 14 4 0 19 11
33 24 15 14 30 23 33 21 4 -2 28 14 54 35 27 22 52 40 57 40 4 0 31 19 58 43
28 23 64 52 81 65 16 13 30 30 30 38 0 7 13 20 28 28 16 8 44 32 63 53 20 21
58 58 85 83 27 25 49 48 49 51 0 4 32 40 70 81 84 89 139 156 141 175 1 7 26
45 55 85 29 39 54 77 55 84 1 7 13 28 26 46 12 18 28 42 34 53 6 11 16 29 22
40 14 25 77 158 77 165 2 12 44 84 45 75 0 -17 33 37 35 59 1 12 8 37 17 56
14 32 41 108 43 120 0 3 6 15 13 28 7 12 10 22 6 22 -3 0 -1 7 6 15 7 8 9 15
6 15 -4 0 -1 10 6 23 7 12 11 25 10 29 -1 3 12 9 28 13 17 4 30 10 30 15 0 4
8 7 17 6 10 -2 33 3 50 11 18 7 35 13 38 13 3 0 6 0 8 1 4 1 30 7 57 12 45 9
79 26 88 44 8 15 -6 32 -86 103 -150 134 -164 148 -157 159 7 12 14 58 21 146
9 104 4 490 -6 490 -1 0 -4 18 -5 40 -2 22 -7 56 -10 75 -3 19 -7 46 -9 60 -2
14 -5 27 -6 30 -1 3 -3 10 -5 15 -1 6 -3 12 -4 15 -2 3 -5 16 -6 30 -4 27 -13
65 -15 65 -3 0 -10 39 -12 60 -1 11 -5 25 -8 30 -4 6 -6 19 -4 30 1 10 -2 25
-8 32 -6 7 -8 13 -5 13 5 0 -19 75 -44 135 -7 17 -13 32 -13 35 -1 3 -5 11 -9
18 -5 6 -5 12 -1 12 3 0 -1 11 -9 24 -9 13 -18 34 -20 47 -6 38 -19 63 -43 81
-12 10 -25 30 -29 45 -3 16 -18 48 -33 73 -15 25 -27 47 -27 50 -1 9 -58 105
-83 138 -13 18 -25 39 -26 46 -1 6 -23 40 -48 74 -26 33 -56 79 -67 101 -11
21 -24 41 -28 43 -5 1 -26 26 -47 53 -68 86 -224 247 -306 313 -25 20 -51 45
-58 55 -17 22 -196 157 -209 157 -6 0 -18 9 -28 20 -9 10 -20 19 -24 18 -12
-3 -61 25 -61 35 0 6 -3 8 -6 5 -3 -4 -41 16 -85 43 -43 27 -79 47 -79 44 0
-3 -17 5 -37 18 -21 13 -60 34 -88 46 -107 49 -155 75 -155 82 0 6 -39 19 -70
24 -3 0 -11 4 -17 8 -7 5 -22 10 -33 12 -10 2 -36 12 -57 22 -21 10 -41 18
-45 19 -5 1 -10 3 -13 4 -3 1 -9 4 -15 5 -5 1 -12 4 -15 5 -3 1 -9 4 -15 5 -5
1 -11 4 -12 5 -3 2 -39 8 -88 14 -24 3 -41 8 -88 27 -13 5 -27 7 -32 4 -5 -3
-12 0 -15 6 -4 5 -13 8 -20 5 -7 -2 -16 -2 -19 2 -4 3 -12 7 -19 8 -7 1 -28 5
-47 9 -19 4 -57 9 -85 11 -107 9 -130 12 -130 14 0 5 -81 10 -190 13 -60 1
-115 5 -120 9 -6 4 -16 3 -23 -1z"/>
</g>
</svg>
